<?xml version="1.0" standalone="no"?>
<!DOCTYPE svg PUBLIC "-//W3C//DTD SVG 20010904//EN"
 "http://www.w3.org/TR/2001/REC-SVG-20010904/DTD/svg10.dtd">
<svg version="1.0" xmlns="http://www.w3.org/2000/svg"
 width="260.000000pt" height="260.000000pt" viewBox="0 0 260.000000 260.000000"
 preserveAspectRatio="xMidYMid meet">
<metadata>
Created by potrace 1.11, written by Peter Selinger 2001-2013
</metadata>
<g transform="translate(0.000000,260.000000) scale(0.100000,-0.100000)"
fill="#000000" stroke="none">
<path d="M283 1812 c174 -295 263 -442 267 -442 7 0 173 282 173 294 0 21
-116 207 -137 221 -15 10 -65 14 -188 15 l-168 1 53 -89z"/>
<path d="M772 1610 c-95 -159 -174 -295 -177 -302 -5 -13 245 -445 304 -525
46 -63 78 -75 207 -81 l111 -4 88 148 c48 82 89 151 90 154 2 3 -58 5 -133 5
l-137 0 -89 148 -88 147 176 294 c97 161 176 296 176 299 0 3 -80 6 -177 6
l-178 -1 -173 -288z"/>
<path d="M1295 1754 c-48 -82 -89 -151 -91 -154 -1 -3 58 -5 132 -5 109 1 137
-2 148 -15 7 -8 48 -73 90 -145 l78 -129 -17 -36 c-9 -19 -30 -54 -46 -78 -16
-24 -29 -45 -29 -47 0 -2 -58 -101 -130 -220 -71 -119 -130 -218 -130 -220 0
-3 80 -5 178 -5 l178 0 173 293 c96 160 176 296 179 300 2 5 -56 108 -129 230
-230 385 -211 367 -383 375 l-113 5 -88 -149z"/>
<path d="M1978 1118 c-36 -62 -75 -129 -86 -148 l-21 -35 62 -105 c40 -67 72
-110 89 -118 19 -9 73 -12 186 -10 l159 3 -156 262 c-86 144 -158 263 -161
263 -3 0 -35 -51 -72 -112z"/>
</g>
</svg>
